<svg version="1" xmlns="http://www.w3.org/2000/svg" width="405.333" height="405.333" viewBox="0 0 304.000000 304.000000"><path d="M173.5.6c-4.6 1.2-14.4 6.7-17.1 9.6-1.6 1.7-2.3 2.7-1.5 2.3 1-.5 1.2-.4.7.4-.4.6-1.1.9-1.5.7-.4-.3-3.4 2.3-6.7 5.6-3.5 3.6-4.8 5.5-3.1 4.5 3.3-2.1 3.3-1.9.5 3-2.1 3.4-2.3 5.1-2.3 17.5 0 7.5-.3 14-.7 14.4-1.2 1.2-9.6-2.6-12.8-5.8-2.4-2.4-3-2.6-3-1.2 0 1.6-.2 1.6-1.2.3-.7-.8-2.2-2.2-3.2-2.9-1.8-1.4-1.9-1.3-1.3.2.9 2.6-.9 2.2-3.1-.7-2.5-3.1-3.2-3.1-3.2-.3-.1 1.6-.5 1.1-1.5-1.7-.8-2.2-1.5-4.1-1.5-4.3 0-.1-.7-.2-1.5-.2-1.1 0-1.5-1.1-1.5-3.9 0-5-2.3-7.5-8.3-9.1-2.7-.7-5.6-2.3-6.6-3.6-2.3-3-3.3-3-9.8 0-7.1 3.3-9.8 8.5-8.9 16.8.6 6.3 4.5 13.8 7.2 13.8 2.5 0 7.4 5.6 7.4 8.5 0 3.6 2.6 4.3 7.2 1.6 4.3-2.4 6.4-2.1 4.8.8-.5 1-.7 2.1-.3 2.4 1.2 1.3-.9 5.8-4.3 9.2-3.4 3.4-3.7 3.5-5 1.8-1.4-1.7-1.4-1.6-.5.4 1.1 2.2.5 5.3-1 5.3-.5 0-.9-1.4-.9-3.1 0-1.7-.5-4-1.2-5.2-1-2.1-1-2.1.7-.7 1.7 1.4 1.7 1.4.5-.7-.8-1.2-1.7-2-2.1-1.7-.4.2-1-.3-1.3-1.2-.3-.8-.2-1.2.4-.9.6.3 1 .1 1-.4 0-1.8-2.4-1.2-3.8.9-1.1 1.7-1 2 .7 2 1.5 0 2.1 1.2 3 6.2.7 3.5 1.4 7.6 1.8 9.3.6 3 .6 3-1.3 1-1-1.2-1.6-1.6-1.2-1 .4.6 2 3.7 3.6 7l3 5.9-5.5 3.3c-2.9 1.8-5.6 3.3-5.8 3.3-.3 0-1.6-2.3-3-5-1.5-3-3.6-5.5-5-6-1.3-.5-3.3-1.8-4.5-3-1.1-1.1-2-1.6-2-1 0 1.8-2.8 1.1-5.6-1.4-2.6-2.2-2.7-2.5-1.5-5.5 1.5-3.4 2.6-3.9 3.9-1.5.6 1.1 1.5-.2 3.5-5.3 1.5-3.8 2.7-7.5 2.7-8.2 0-.8 1.4.5 3 2.7 1.7 2.3 3.2 4.2 3.5 4.2.2 0-.5-1.9-1.5-4.3-1-2.3-2.4-8.7-3-14.2-1.5-12.4-3.9-18.2-9.9-23.8-6.7-6.3-12.1-8.1-22.5-7.5-10.3.7-16.9 3.5-24.9 10.4-3 2.7-6.6 5.6-7.8 6.5l-2.4 1.6L7 54c2.2 4.7 11.5 15 15.6 17.3.9.5 2.8.4 4.7-.4 2.4-1 3.2-1 3.5-.1.4 1.3 2.2.6 2.2-.9 0-.5-2.1-.9-4.7-.9-3.1 0-4.3-.3-3.4-.9.7-.5 2.3-.7 3.5-.4 2.1.4 2.1.4.2-1.1-2.3-1.8-1.5-2 3.2-.7 4.3 1.3 4.1.4-.4-1.5-2-.9-6.6-3.3-10.3-5.5L14.5 55l4 3.5c2.2 1.9 3.6 3.5 3.1 3.5-1.2 0-9.6-6.9-9.6-7.9 0-1.1 4.3-.7 7 .8l2.5 1.4-1.9-2.2C18.5 53 18 52 18.4 52c1.3 0 12.2 8.8 15.5 12.5 2.3 2.7 3.7 3.5 5.1 3 1.7-.5 2.1-.1 2.7 2.5.5 2.6.8 2.9 1.5 1.6.5-.9.7-2 .4-2.4-.3-.5.9-1.7 2.7-2.7 3.1-1.8 3.2-1.8 1.7 0-1.4 1.7-1.3 1.8.3 1.2 1.4-.5 1.7-.1 1.7 2.3 0 1.6-.4 3.1-.9 3.4-.5.4-.7-.2-.4-1.3.3-1 0-2.2-.7-2.6-1.6-1-2.6.3-1.2 1.7.7.7.8 1.7.2 2.9-.8 1.4-.6 1.6 1 1.2 2.9-.8 2.4.6-.6 1.7-1.4.6-2.4 1.6-2.1 2.3.2.6-.2 2-1.1 2.9-1 1.3-1.1 1.8-.3 1.8.7 0 .9.4.6 1-.3.5.1 1 1 1 2.7 0 10.3 4.1 14.7 8 2.4 2 6.2 4.7 8.5 5.9 3.8 1.9 4.4 2.8 5.9 7.8 1.6 5.4 1.6 5.8-.1 6.8-1 .5-3.8 2.7-6.3 4.8-2.4 2.1-5 3.6-5.7 3.3-.7-.2-3.9-1-7.2-1.6-5.5-1.1-6.1-1-10.7 1.4-2.7 1.4-5.7 2.6-6.7 2.6-3.8 0-12.9 4.2-17 7.9-4.6 4-7.2 4.9-15.1 5.3-2.7.1-4.8.5-4.8.9s-.3 1.4-.6 2.3c-.4 1.1 0 1.6 1.3 1.6 1.1 0 3 1.1 4.3 2.5l2.4 2.6-2.2.6c-2.9.7-2.8 1.4.8 4.8 2.5 2.4 2.8 3 1.5 3.8-2.3 1.2-1.8 2.2 2 4 2.8 1.3 3.5 2.2 3.5 4.6 0 1.5.6 4.6 1.4 6.8 2.2 6.3 2.9 16.3 1.6 22.6-.6 3.1-1.3 6.9-1.4 8.4-.4 3.3-3.5 4.3-5.6 1.8-.7-.8-2.1-1.5-3.1-1.5-3.1 0-2.2-3.3 1.4-5.1 2.7-1.4 3.2-2.2 3.2-5-.1-1.9.6-3.9 1.3-4.5 1.7-1.3 1.2-3.6-.9-4-.7-.1-2.9-.7-4.7-1.3-3-.9-3.3-.8-2.7.7 1.1 3 1 3.6-.7 4-1.3.2-1.6-.1-1.2-1.2.4-.9.1-1.6-.6-1.6-.9 0-1-.3-.1-1.3 1.1-1.4.6-2.7-1-2.7-.4 0-.8 4.5-.7 10 0 9.1.2 10 1.9 10 1.1 0 1.9.4 1.9.9s-.9.7-2 .4c-2-.5-2 0-2 50.1V304h171l1.7-3.5c1.1-2.2 2.3-3.4 3.3-3.3.8.2 2.2-.5 3.1-1.6 1.4-1.7 1.9-1.8 3.3-.7.9.8 1.6 2.8 1.6 4.9 0 1.9.3 3.3.6 3 .3-.4 1.9-.2 3.4.2 1.6.5 2.9.5 2.8.2-.1-.4.2-1.8.6-3.1l.8-2.3 1.9 3.1 1.9 3.1h16.4c16.2 0 16.7-.1 27.5-3.6 6.1-1.9 11.1-3.9 11.1-4.3 0-.5-2.8.2-6.3 1.4-8.1 3-10.5 2-5.8-2.4 2.1-2 5-3.4 8.7-4.1l5.4-1.1 6.6 4.6c3.6 2.6 6.9 5.8 7.4 7.1l1 2.4h36l-.1-13.2c0-7.3-.3-13.7-.7-14.2-.9-1.6-1-4.6 0-4.6 1.6 0 .8-4.9-.9-5.9-1.7-1-1.7-1 0-1.1 2.5 0 2.1-2.8-.5-3.2-3-.4-3.2-3.5-.2-4.2 2.3-.6 2.3-.7 2.2-15.4 0-8.1-.2-14.1-.5-13.5-.7 1.9-3 1.6-3-.3 0-.9.9-1.9 1.9-2.2 1-.2 1.8-1.3 1.8-2.5 0-1.6-.3-1.8-1.2-.9-1.6 1.6-4.1 1.5-3.6 0 .3-.7-.6-1.8-2-2.5-3.1-1.6-3-1.6-3.5.4-.4 1.4-.5 1.3-.6-.4 0-1.2.6-2.9 1.5-3.7 1.4-1.5 1.4-1.6 0-1.6-1.1 0-1.6-.9-1.6-2.8 0-5.3 2.9-25.7 4.5-31.7s1.5-9.1-.7-19c-2.5-12-11.3-20.5-24.7-24l-4.5-1.1 2.9-2c1.5-1 4.6-3.6 6.7-5.6 4.6-4.3 4.6-4.5-.5-19.7-2.4-7.1-3.7-9.6-5.5-10.4-1.3-.6-3-2.2-3.8-3.6l-1.5-2.6.7 2.5c.3 1.4 2.3 6.3 4.4 10.9 4.2 9.3 4.2 10.1-.9 15.2-1.4 1.4-3.4 3.8-4.4 5.3-2.8 4.1-6.4 6.1-8.2 4.6-1.3-1.1-1.3-1.4 0-2.7 2.5-2.5 3.7-5.4 3.1-7.7-.4-1.6.6-4.1 2.9-8 4.9-8.2 5.1-9.3 2.2-12.4-1.4-1.5-3.2-4.2-4.1-6-.9-1.7-1.9-3.2-2.1-3.2-1 0 1.7 5.4 4 8.2 3 3.6 3.1 5.7.5 9.1-1.1 1.4-2 2.8-2 3.1 0 .4-.7 1.8-1.6 3.1-1.5 2.3-1.7 2.4-4.5 1-3.8-2-6.1-6.4-4.7-9 .6-1.1 1.7-2.4 2.5-2.8 2.3-1.4 1.4-2.7-1.2-1.5-1.9.8-2.8.8-4-.2-3.2-2.7-.8-8 5-10.9 4.1-2.1 7.8-2.1 11-.2.6.3.2-.2-.8-1.2-2.4-2.2-2-2.6 3.5-3.8 5.8-1.3 17.2-8.2 20.3-12.3 3.4-4.5 4.9-9.9 3.5-12.6-1.9-3.6-6.3-2.4-13.4 3.7-2.2 1.8-4.4 3.3-5 3.3-.6.1-2.4.7-4.1 1.5l-3 1.4 3-.6c4.1-.8 7.4-2.6 11.4-6.2 1.9-1.7 3.7-2.8 4.2-2.6.4.3 1 .1 1.4-.5 1.1-1.8 4.2-1.1 4.8 1.2.8 3.1-1.4 7.4-3.7 7-.9-.2-3.5 1.3-5.6 3.2-2.1 1.9-6 4.1-8.7 4.9-6.7 2-14.6 6.4-14.9 8.3-.2 1 .1 1.2.9.6.7-.5 3.9-1.7 7.2-2.7 3.3-.9 6.5-2 7-2.5.6-.4 2.1-1.1 3.5-1.4 3.9-1-4.9 3.3-10 4.9-2.5.8-6.4 2.1-8.8 3-2.4.8-4.8 1.2-5.4.9-.7-.4-.8-.2-.4.4.4.7.2 1.2-.3 1.2-.6 0-1.1-.5-1.1-1.1 0-.6-.7-.3-1.6.5-.8.9-2.7 1.6-4.2 1.6-2 0-2.3.3-1.2.9.8.6 1.8.8 2.2.5.4-.3-.1 1.4-1.1 3.8-1.5 3.5-2.3 4.4-4.8 4.6-3.4.3-5.2-1.3-6.4-6.1-.8-3.1-.8-3-.5.8.2 2.2.7 5.1 1.1 6.4.7 2.1.6 2.3-1.6 1.7-2.4-.7-2.4-.7-.4 1 2.9 2.3 8 4.4 11.1 4.4 2.7 0 8.4 2.8 8.4 4.2 0 .4 1.8 2 4 3.4 3.1 2.1 4 3.3 4 5.5 0 4.1-3 5.5-6.4 2.8-1.4-1.1-2.6-1.6-2.6-1 0 .5 1 1.7 2.3 2.7 2.1 1.6 2.1 1.6-2.3 1-2.5-.4-5.6-1.4-6.9-2.3-3.2-2.1-11.8-2.5-15.6-.8l-3 1.4 3.5-.2c3.3-.2 3.5 0 3.3 2.6-.4 6.1-4.4 7.3-11.3 3.3-2.3-1.3-5-2.1-6.1-1.9-2.2.6-7.9-4.9-7.9-7.7 0-3.5 2.1-7.5 6.4-12 2.4-2.5 6-7.2 8.1-10.5 4.8-7.6 18.5-20.6 23.3-22.2 2.1-.6 2.9-1.2 2-1.2-.9-.1-2.7.3-4 .8-2.2.9-19.5 17.2-23 21.8-1 1.3-2.8 2.3-4.1 2.3-3.7 0-8.3 3.1-16.6 11.2-4.3 4.3-8.3 7.8-8.9 7.8-.6 0-1.2.4-1.4.9-.1.5-4.2 3-8.9 5.4-6.4 3.4-8.9 4.3-9.8 3.4-.8-.8-1.1-.7-1.1.5 0 1.9-4.6 5.2-5.5 3.8-.3-.5-1.4-4.2-2.5-8.2-1-4-1.9-6.3-1.9-5.2-.1 1.2.8 5.2 2 8.9 1.6 5.3 1.8 6.9.8 8.1-1 1.2-1.4 1.3-2 .2-1.8-3.2-3.9-17.8-4.9-32.9-.6-9-1.3-17.9-1.7-19.8-.5-3.1-.4-3.3 1.3-2.7 1 .4 1.5.3.9-.1-.5-.5-2.3-1.9-4-3.3-1.6-1.4-2.4-1.8-1.8-1 1.7 2.3 1.3 8-.5 8-1.1 0-.7.9 1.3 3 6.3 6.6-4.9 2.9-16.7-5.5-2.6-1.8-5.3-3.5-6-3.7-.9-.3-.5-1.4 1.2-3.5 1.4-1.7 3-3.9 3.6-4.9 1-1.7 1.5-1.8 4.2-.8 2.5 1 3.4.9 4.3-.2.6-.8 1.5-1.1 2-.9.4.3 2.2-1.3 4-3.5 3.4-4.3 4.9-4.7 2.8-.8-1.1 2-1 2.1.2 1.1.8-.7 2.5-3.3 3.8-5.8 1.2-2.5 2.4-4.5 2.6-4.5.3 0 1.3 1.7 2.4 3.9 2.6 5 5.1 6.1 5.1 2.2 0-2.1-.7-3.1-3.2-4.2-3.5-1.5-4.6-4.1-5.5-13.1-.5-4.4-.3-4.7 2.6-6.2 3.7-2 4.5-.9 2.2 3.1-2.7 4.3-1.7 7.9 2.8 10.2 3.1 1.6 3.9 2.9 6.1 9.1 2.8 8 4.5 9.2 4.2 2.7l-.2-4.2 1.8 5c2.5 6.8 4.6 10.7 6.8 12.7 1.8 1.6 1.9 1.4 2.2-4.5.2-3.4.9-9.8 1.6-14.2l1.2-8L187 57c1.1 5.1 1.5 5.8 1.7 3.5.2-1.7 1.1-6.3 1.9-10.3 1.2-5.7 1.9-7.2 3-6.8.9.3 1.2.1.9-.4-.3-.6.1-1 1-1 1.1 0 1.5.5 1.2 1.4-.7 1.9 2.2 3 3.9 1.5 1.4-1.1 1.4-1.1 2.8 3.5.3.7-.1 1.9-.7 2.5-.8.8-.7 1.1.6 1.1 1 0 1.7-.8 1.7-1.9 0-1.5.7-1.9 3.5-1.8 1.9.1 3.5.5 3.5.9 0 1.4 2.8.9 3.3-.6.4-1 .1-1.3-.9-.9-1.9.7-9.4-7.2-9.4-9.9 0-2.6 2.1-11.1 3-12.1 1.1-1.2 5.2.8 9.1 4.6 4.3 4.1 5.5 8.9 4.4 17.4-.6 5.1-.8 5.4-2.9 4.9-1.6-.4-2.9.1-4 1.3-1.4 1.6-1.6 2.7-.8 7 1 5.7-.3 7.9-5.1 8.3-1.4.1-2.4.5-2.1.9.6 1.1 4.4 1.8 4.4.8 0-.5.7-.9 1.5-.9 1.3 0 1.2.7-.5 4-3.1 6.1-14.1 22.1-15.6 22.7-.7.2-4.7-.5-8.8-1.6-7.6-2.1-12.5-2.7-11.3-1.4.4.3 1.9.7 3.4.8 1.6.1 5.4 1 8.6 2 7.4 2.2 10.2 1.5 12.6-3.3 1.1-2 3.9-5.7 6.1-8.2 3.4-3.6 3.9-3.9 2.5-1.5-1.3 2.4-.8 2.1 2.6-1.5l4.2-4.5-3.1 6.1c-1.7 3.4-4.3 7.6-5.9 9.4-2.2 2.7-2.3 3.1-.7 2.2 1.1-.6 2.6-1.8 3.4-2.6 1.7-2.2 3.6-2 1.9.1-.7 1 1.7-1.1 5.3-4.5 3.6-3.5 8.2-9.1 10.2-12.5 4-6.8 4.6-5.9 1.7 2.6-1.1 3.2-1.8 5.7-1.6 5.7.8 0 6.2-11.4 8-16.8.9-3 2.3-8.6 3-12.5l1.2-7.2 2.3 5c1.2 2.7 2.6 6.1 3.1 7.4 1.7 4.2 1.9 1.7.3-3.4-.8-2.8-1.9-10.2-2.4-16.5-.6-6.3-1.5-13.7-2.1-16.3-1.3-5.5-2.6-6.3-11.7-7.4-7.5-.8-13.1-4.3-12.5-7.5.4-2.3.2-2.4-5.9-2.4-4.5 0-8.4-.8-13.7-2.8-7.2-2.7-18.9-4.2-23.6-3zm-5 7.7c-2.2 1.1-4.3 2.1-4.7 2.2-.3 0-1 .3-1.4.7-.4.5-1.8.8-3.1.8H157l2.1-2.1c1.1-1.1 4.2-2.4 6.7-2.9 6.9-1.1 7-1.1 2.7 1.3zm-5 5.7c-.4.7.3.9 2.2.5 2.1-.5 2.4-.4 1.3.4-.8.6-3.2 1.1-5.3 1.1-3.2 0-3.6-.2-2.5-1.5 1.5-1.6 5.3-2.1 4.3-.5zm-74 15c.3 1.1 2 2.3 3.6 2.8l3.1.7-4.2 2.2c-2.2 1.3-3.8 1.8-3.4 1.2 1.2-2-1.8-2.8-4.3-1.2-1.3.8-2.3 1.1-2.3.7 0-.5.9-1.5 2-2.2 2.9-1.8 2.5-3.6-.5-2.8-3.3.8-3.2 0 .3-1.8 3.7-2.1 5-2 5.7.4zm110 7.4c.7 5.8.7 5.8-1.6 5.1-3.9-1.2-4.1-1.9-1.8-6.9 1.1-2.6 2.2-4.6 2.4-4.4.2.2.7 2.9 1 6.2zM54.7 34.7c5.3 4.2 6 5.7 3.9 7.8-1.3 1.4-1.6 2.7-1.1 5.9.5 3 .3 3.7-.4 2.6-.9-1.2-1.1-.9-1.2 1.5 0 2.6-.2 2.8-1 1-.8-1.7-.9-1.6-.6.7.2 1.5.1 2.5-.4 2.3-.4-.3-.9.1-1.1.7-.3.7-1.8-.6-3.4-2.9-2.8-4.1-5.2-5.8-4.1-2.9.9 2.3-.4 2.6-3.1.8-2.1-1.4-2.4-1.4-1.7-.2.5.8 1 1.8 1 2.2 0 .3.4 1 .9 1.5.6.5.6.2.1-.7-.5-.8-.4-1.2 0-.7.5.4.9 1.6 1 2.6.1 1.8-.2 1.7-6.4-.5-4.2-1.6-5.9-1.9-4.7-.9 1.1.8 2.4 1.5 2.9 1.5.4 0 .5.5.2 1-.4.6 1 1.7 3 2.6 2.1.8 3.5 1.8 3.1 2.1-.6.6-14.1-5.7-17.1-8.1-1.9-1.5-1.9-1.5 1-1.7 2-.1 2.4-.3 1.1-.6-1-.3-3.3-1.4-5-2.5-1.7-1.1-2.2-1.7-1.1-1.3 4.3 1.5 5.5 1.7 5.5.7 0-.6-.6-1.2-1.2-1.5-.7-.2 1.2-.3 4.3-.2 3.1.1 6.3.5 7 .9.8.4.1-.4-1.4-1.8-2.8-2.6-2.8-2.6-.5-2.6 1.8 0 2-.2.8-1-1.3-.9-1.3-1 .1-1 .8 0 2 .5 2.7 1.2 1.8 1.8 1.5-.2-.3-2.2-1.4-1.6-1.2-1.6 3-1 4.1.6 6.3-.2 3.3-1.3-.9-.3-.7-1.3.9-3.5s1.9-3.2 1-3.6c-.6-.2.3-.3 2.1-.1 1.8.1 4.9 1.6 6.9 3.2zm149.2 2.7c-.1 5.2-.4 6.3-1.6 5.9-.8-.3-1.2-1.2-.7-2.2.3-.9.7-2.7.9-4.1.1-1.4.3-3.3.3-4.3.1-.9.4-1.7.7-1.7.3 0 .4 2.9.4 6.4zm-97.8 2.9c-1 .9-1.1.8-.5-.6.3-1 .9-1.5 1.2-1.2.3.3 0 1.1-.7 1.8zm-12.8.2c-.3.9-.8 1.4-1 1.1-.3-.3-.2-.9.2-1.5.9-1.6 1.5-1.3.8.4zm-3.9 3c-1 .8-2.3 1.4-2.9 1.4-.5.1.1-.8 1.5-1.9 1.4-1 2.7-1.7 2.9-1.4.3.2-.4 1.1-1.5 1.9zM29.5 46c.3.5.2 1-.4 1-.5 0-1.3-.5-1.6-1-.3-.6-.2-1 .4-1 .5 0 1.3.4 1.6 1zm71.9.6c2.5 2.4 1.9 6.2-1.4 9.6-1.6 1.6-3 3.3-3 3.8 0 1.4-3 4-4.6 4-.9 0-1.4-1.1-1.4-2.9 0-1.6-.6-3.1-1.5-3.5-.8-.3-1.5-1.1-1.4-1.8 0-1 .2-1 .6 0 .4 1 1.1.8 2.9-.9 3.3-3.1 2-4.2-2.1-1.7-2.9 1.6-3.8 1.8-5 .8-1.2-1-1.8-1-3 0s-1.5 1-1.5-.4c0-.9.4-1.6.9-1.6.4 0 2.6-1.4 4.7-3.1 3.3-2.6 4.4-2.9 7.6-2.4 2.5.5 3.8.3 3.8-.4 0-1.6 2.6-1.3 4.4.5zM163 46c0 1.2-2.8 2.5-3.6 1.7-.9-.9.6-2.7 2.2-2.7.8 0 1.4.5 1.4 1zm-53.2 3.8c.7-.7 1.2-1 1.3-.8 0 .3.2 1.4.4 2.6.3 1.4-.7 3.2-3.2 5.5l-3.6 3.4.7-3.4c.3-1.8.6-4.8.6-6.5.1-2.8.2-2.9 1.4-1.4 1 1.3 1.5 1.5 2.4.6zm110.6 5.1c.3.4-.2 1.7-1 2.7-1.5 1.8-1.5 1.8-1.1-.3.4-1.6.1-2-1.2-1.6-1.4.4-1.4.3-.1-.6 1.8-1.3 2.7-1.4 3.4-.2zM12.9 59c1.1 2.4 1.1 2.4-.3.6-.9-1.1-1.6-2.4-1.6-3 0-1.2.5-.7 1.9 2.4zm45.6 6.9c-.9 7.4-3.4 15.3-4.7 14.5-.6-.4-.8.2-.3 1.6.5 1.5.3 2-.3 1.6-1.6-1-2.6 1.5-1.1 2.6 1.2.8 1.1.9-.1.5-1-.3-1.5-1.6-1.4-4.3.5-13.4.7-15.3 1.5-14.8.5.3.9-1.4 1-3.8.1-3.6.2-3.9.9-1.8.4 1.4.9 4.1 1 6l.2 3.5 1-3.5c.5-1.9.7-5 .4-6.8-.4-2.9-.3-3.2 1-2.1 1.2.9 1.4 2.5.9 6.8zm53.5-1.7c-1.1 2.9-2 5.4-2 5.5 0 .2-.4.3-.9.3-1.4 0 .9-8.3 2.7-9.8 2.4-1.8 2.4-1.6.2 4zm104.5-3.3c.3.5.1 1.2-.5 1.6-.5.3-1-.1-1-.9 0-1.8.6-2.1 1.5-.7zM22.2 67.1c-1.9.7-3.8-.5-5.3-3.3-.9-1.8-.7-1.7 3 .4 3.2 1.8 3.7 2.4 2.3 2.9zm40.3 8c-2.7 7.6-4.4 11.1-4.5 9.3 0-.6.9-3.7 2-6.9s2-6.4 2-7.1c0-.7.5-2.5 1.2-4.1 1.1-2.6 1.2-2.7 1.5-.6.3 1.2-.7 5.4-2.2 9.4zM49 83.5c0 .8-.7 1.5-1.6 1.5-1.4 0-1.4-.3-.4-1.5.7-.8 1.4-1.5 1.6-1.5.2 0 .4.7.4 1.5zm227 27.1c4.9 14.7 4.9 14.7-6.1 21.9-5.9 3.9-7.2 4.4-9 3.4-2-1-2-1.2 1.5-3.5 2-1.4 3.6-2.8 3.6-3.2 0-.4 2-3 4.4-5.8 6.1-7 6.3-8.5 2.1-16.8-1.9-3.9-3.5-7.1-3.5-7.3 0-.2.8.1 1.9.6 1.1.7 3.1 4.7 5.1 10.7zm-60.8-6.4c-.7.7-1.8 1.3-2.4 1.3-1.7 0-7.5 9-8.2 12.8-.4 1.9-.1 4.7.5 6.3.7 1.6 1.1 3.3 1 3.7-.1.5.2.6.7.3.5-.3 2.2.9 3.8 2.6 1.6 1.7 5.6 4.3 8.9 5.9 3.3 1.6 5.1 2.9 4 2.9-3.2 0-13.8-5.5-16.9-8.8-4.4-4.7-4.7-11.1-.8-18.8 1.7-3.3 4.3-6.7 5.9-7.6 3.3-2 5.2-2.3 3.5-.6zm31.3 2.8c.8 1.3-1.5 1.3-3.5 0-1.2-.8-1.1-1 .7-1 1.2 0 2.5.4 2.8 1zm-2.5 26.4c0 .2-.7.6-1.5 1-.8.3-1.5.1-1.5-.4 0-.6.7-1 1.5-1s1.5.2 1.5.4zm13 3c0 2.5-6.9 3.6-10 1.6-1.1-.7-.6-1 2-1 1.9 0 4.2-.5 5-1 2.1-1.4 3-1.2 3 .4zM56 140c2.1 1.6 2.3 2.2 1.3 3.9-1 1.7-.9 2 1.3 2.5 1.7.5 2.4 1.2 2.2 2.4-.2 1.1.8 2.3 2.7 3.3 2.8 1.5 4.6 3.9 6.1 8.4.5 1.7.8 1.6 1.8-1.3 1.1-3.3 4.6-6.5 4.6-4.2 0 .5-.5 1-1 1-.6 0-1.4 1-1.9 2.2-1 2.7.9 7.2 3.5 8.2 2.7 1 2.7.1-.1-3.3-1.5-1.7-2.1-3.1-1.5-3.1.7 0 1-.7.6-1.5-.4-1 .1-1.4 1.7-1.2 1.2.1 2.5.6 2.9 1.2 1.1 1.4 1 11.3-.1 11.9-.4.3-1.1 1.9-1.4 3.6-.6 2.5-1.1 3-3.7 3h-3v6.4c0 3.6-.4 6.8-1 7.1-.6.3-1 1.1-1 1.8 0 2.9 2.8-3.3 3.4-7.6.7-4.4.9-4.7 3.7-4.7 3.2 0 8.5 4.3 7.4 6-.3.6-.1 1 .6 1 .6 0-1.5 1.9-4.7 4.3-6.1 4.5-19.2 18.3-23.7 24.9l-2.5 3.8-1.3-3.2-1.3-3.2 9.8-9.2c5.4-5 12.7-10.9 16.2-12.9 8.3-4.9 7.5-5.8-1-1.2-3.5 1.9-6.6 3.3-6.9 3.1-.2-.2-3 2.1-6.3 5.1-6.9 6.4-15.3 11-18.6 10.1-2.4-.6-14.7-14.1-18.6-20.4-1.2-2-3.3-7.2-4.7-11.5-1.4-4.3-3.2-9.1-4-10.6-1.3-2.6-1.3-3 .1-3.5.9-.3 3.2-.5 5.2-.5 2.1.1 2.8.3 1.6.6-1.2.2-2.9 1.2-3.8 2.2-1.5 1.7-1.5 2 .3 4.2 2 2.4 2.9 1.6 1.2-1.1-1.6-2.4 0-3.3 2.1-1 1.3 1.4 2.6 1.9 4 1.4 1.8-.5 2-.3 1.5 2.2-1.1 5.9 3.7 10.4 8.4 7.8 1.3-.7 2-1.3 1.5-1.4-.5 0-.3-.7.4-1.5 1.1-1.3.8-1.5-1.8-1.5-1.8 0-3.5.7-4 1.6-1.7 3.1-3.2.4-3.2-6 0-8.2-1.6-9.9-9.2-9.5l-5.3.3-.3-3.8c-.6-6.7.3-8.2 5.5-9.6 2.7-.7 5.7-2.1 6.9-3.1 1.1-1.1 2.4-1.9 3-1.9.5 0 2.9-1 5.4-2.3 5.6-2.8 15.1-2.6 19 .3zm184.5 9.7c-1.3 2.1-3 5.4-3.6 7.3-1.9 5.2-3 6.1-5 3.6-1-1.2-2.1-1.8-2.5-1.4-.9 1 1.4 3.7 5 5.9l2.8 1.7-4.7 2.1c-5.9 2.6-6.9 2.6-6.1.1.3-1.1.9-2.9 1.2-4 .5-1.7.2-2-2.2-2l-2.9-.1 3-2.5c1.7-1.4 4.8-4 7-5.8 2.2-1.8 5.4-4.5 7-5.9 3.9-3.4 4-3.4 1 1zM278 160c5.6 2.9 7 5.4 7 12.9 0 4.9-.4 6.7-1.7 7.7-1.7 1.3-1.7 1.3 0 1.4 2.3 0 2.2 2-.1 2-1.1 0-2.7.8-3.6 1.9-1.6 1.7-1.6 1.9 0 2.5.9.4 2.5.4 3.5.1 2.8-.9 2.3.7-2.3 7.6-3.3 4.9-5.7 7-10.3 9.6-3.3 1.8-7.2 3.3-8.7 3.3-3.6 0-10.1-5.8-13.9-12.5-2.6-4.5-4.3-5-1.9-.4 1.2 2.2.1 2.5-3.3.9-1.7-.8-1.7-.7.3.7 6.1 4.3 10.6 10.5 6.5 8.9-.8-.3-1.5-.2-1.5.3s.7 1.4 1.5 2.1c.8.7 1.5 1.6 1.5 2.1 0 1.9-3.2.7-6.7-2.5-3.1-2.8-3.9-4.4-4.9-9.7-.6-3.5-1.4-7.1-1.8-8-.4-1 .7-3 3.5-6 4.7-5.1 5.9-7.6 5.5-11.6-.2-1.5.1-3.6.6-4.6.9-1.8-.5-5.5-2.6-6.9-.8-.6-.8-.8 0-.8 1.6 0 3.1 2 3.9 5.3.9 3.2 2.5 3.4 5.1.6 2.1-2.4 10.5-7 14.4-8 4.3-1.1 6-1 10 1.1zm-33 5.6c0 .2-.7 1.6-1.6 3-1.3 1.9-1.4 2.8-.5 3.7.8.8 1.1.8 1.1-.1 0-.7.5-1.2 1.2-1.2.6 0 .4.8-.6 1.9-1.1 1.2-1.4 2.1-.7 2.6.6.3 1.1 1.2 1.1 1.8 0 .7-.4.6-1-.3-.8-1.2-1-1.2-1 .5-.1 4-2.9-2.8-3-7.2 0-5.9.8-7.5 3.1-6.2 1 .5 1.9 1.2 1.9 1.5zm-26 8.4c1.1.6 2.4 2 3.1 3.1.9 1.7.8 2-.8 1.8-1-.2-4.1.3-7 1-2.9.7-5.7 1-6.3.6-1.5-.9-1.2-3.5.4-3.5.7 0 1.9-.6 2.6-1.4.6-.8 2.1-1.7 3.3-1.9 1.2-.2 2.3-.5 2.5-.6.2 0 1.2.4 2.2.9zm16.7 15.7c.3.6-.4 1.1-1.4 1.1-1 0-2.2 0-2.8.2-.5.1-1.8.2-2.9.1-1.5-.1-1.6-.3-.6-1.7 1.5-1.7 7.1-1.6 7.7.3zM9 193.2c0 2.2-1.2 2.9-3 1.8-1.1-.7-1.2-1.3-.1-3.6 1-2.2 1.4-2.5 2.2-1.3.5.7.9 2.2.9 3.1zm223.6 2.3c-1.6 2.8-3.8 4.4-6.1 4.4h-2l2-.9c1.9-.9 1.9-.9-.2-1.6-1.3-.3-2.3-1.4-2.3-2.3 0-1.3 1-1.6 4.9-1.6 4.5 0 4.7.1 3.7 2zm-11.1.5c-.3.5-1.3 1-2.1 1s-1.2-.5-.9-1c.3-.6 1.3-1 2.1-1s1.2.4.9 1zM6 197c0 .5-.4 1-1 1-.5 0-1-.5-1-1 0-.6.5-1 1-1 .6 0 1 .4 1 1zm214 2.4l4.5 1.5-4.5.1-4.5.2 3.3.9c3.9 1.2 4 1.6.5 1.7-3.3.1-13.9 1.8-16.8 2.6-1.8.6-1.7.5.1-.5 1.2-.6 2.7-2.2 3.3-3.5 1.9-4.3 6.7-5.3 14.1-3zm20.8 16c.9-1 .8-1.4-.6-1.8-2.6-.9-8-6.6-6.1-6.6 2.3 0 13.2 7.7 11.7 8.3-.7.3-.2.6 1.1.6 2 .1 2.2.5 1.7 2.6-.8 3.2 1.4 7.6 4.7 9.4 1.3.7 3 2.7 3.8 4.4 1.7 3.9 5.1 4.7 7.2 1.7 1.4-2 1.5-1.9 6.2 3.5 3.5 4.2 6.5 6.4 12.1 9.1 6.4 3 13.4 9 13.4 11.5 0 .4-1.5 1-3.4 1.3-1.9.4-5.5 1.8-8.1 3.1-2.5 1.4-4.8 2.5-5.1 2.5-.2 0-.4-1.1-.4-2.4 0-1.4-.4-2.8-1-3.1-.5-.3-1 .1-1 .9 0 .9-2-.4-4.8-3.2-2.7-2.6-7.3-5.8-10.3-7.2-3-1.4-6-3.2-6.6-4-.7-.8-.1 1.2 1.3 4.4 1.9 4.2 2.4 6.4 1.7 7.5-.6.9-.6 3.3-.1 6 1 5.6.4 6.2-1.8 1.9-2.6-5-7.1-9.9-16.7-18.2-12-10.2-18.2-16.5-17.3-17.4.4-.4 3.7-1.8 7.3-3.2 3.6-1.4 6.5-3 6.5-3.5-.1-1.1-8.9-3.3-14.1-3.4-3-.1-3.3-.4-2.7-2.4.3-1.2.6-3.9.6-6 0-3.6.1-3.7 3.9-3.7 2.2 0 4.3-.5 4.7-1.2.5-.8 2.5.7 5.9 4.3 4 4.4 5.3 5.3 6.3 4.3zm13.7 1.6c-.3.5-.1 1.9.5 3 1.3 2.5 5 2.7 5 .2.1-1.6.1-1.6 1.4.1 2.1 2.7 2.9 8.6 1.5 10.3-1.4 1.7-3 1.8-2.8.1.4-3.3-.3-4.8-3.1-6.2-1.6-.8-3.4-2.5-4-3.6-1.3-2.3-.7-4.9 1-4.9.6 0 .8.4.5 1zm18.7 16c2.7 2.4 2.7 2.6.9 3.7-1.7 1.1-2.3.8-4.5-2.1-1.4-1.8-2.8-4.6-3.1-6.2l-.7-2.9 2.4 2.5c1.2 1.4 3.5 3.6 5 5zm-76.6 5.5c.6 2.8 1.6 4.3 3.2 5 2.2.9 2.3 1.5 2 6.6-.6 7.8-4.2 14.6-8.3 15.4-5.7 1.2-6.4 1.6-10.3 6.5l-3.9 4.9-.6-7.2c-.4-4.8-.3-7.3.4-7.6.7-.2.7-.6-.2-1.1-1.5-1-1.6-1.7-2.5-13.3-.7-8.8-.5-9.4 2.9-8.8.4.1 1.6-.6 2.5-1.5 1.5-1.6 1.7-1.6 2.2.7.4 1.4 1.3 2.4 2.3 2.3 7.3-.3 7-.2 6.3-3.7l-.6-3.2 1.5 2.5c1.5 2.4 1.5 2.4 1-1.5-.6-4.9.8-2.1 2.1 4zm2.1-.3c-.3.8-.6.5-.6-.6-.1-1.1.2-1.7.5-1.3.3.3.4 1.2.1 1.9zM168 240c2.4 1.5.7 1.8-2.5.4-2.3-1-2.5-1.3-1-1.3 1.1-.1 2.7.3 3.5.9zm-2.8 4.1c-.2 1.9-.1 2.1.7.9 1-1.3 1.1-1.3 1.1 0 .1 1.1.4 1 1.5-.4 1.4-1.9 1.5-1.9 1.5.7 0 1.5-.3 2.6-.7 2.6-2.3-.4-3.5.4-1.5.9 2.8.8 3 2.6.4 3-4.6.7-9.1-6.5-6-9.6 1.8-1.8 3.3-.8 3 1.9zm133.5 7.1c-.3.7-.5.2-.5-1.2s.2-1.9.5-1.3c.2.7.2 1.9 0 2.5zm-125.1 12.9c.8 4.1 1.4 7.5 1.4 7.7 0 .2-1.2-1-2.6-2.5l-2.5-2.8 1.6 2.7c.9 1.5 1.4 3.2 1 3.8-.3.5.1 1 .9 1 1.7 0 3.1 4.1 2.2 6.5-.8 2.2-5.3 1.9-6.6-.5-1.2-2.2-.5-6 1.1-6 .6 0 .7-.5.4-1-.4-.6-1.2-.7-1.8-.3-.7.4-.6 0 .2-1 .8-1.1.9-1.7.3-1.7-1.3 0-8.5-6.1-7.9-6.7.2-.2 1.6.1 3 .6 2.5 1 2.7.8 4.4-3.9 1-2.8 2.1-4.6 2.6-4.1s1.5 4.2 2.3 8.2zM303 269c0 .5-.4 1-1 1-.5 0-1-.5-1-1 0-.6.5-1 1-1 .6 0 1 .4 1 1zm-116.1 11.9c1.1.7.9 1-.8 1.6-2.5.8-3.6.2-2.6-1.4.8-1.3 1.5-1.4 3.4-.2zm-5.1 3.8c.2 2.1-.2 3.2-1.3 3.7-2 .7-2.9-1.5-2.1-5 .9-3.4 3-2.6 3.4 1.3zm8.2 1.9c0 1.1-.4 1.2-1.9.5-1-.6-2.1-.8-2.4-.4-1 .9 1.3 4.3 2.9 4.3 1.1 0 1.4.9 1.2 3.7-.3 4-2.8 6-2.8 2.2 0-1.3-.9-3.3-2.1-4.5-1.6-1.7-1.9-2.6-1-4.2.6-1.1.7-2.2.3-2.6-.3-.4 0-1.1.8-1.6 1.8-1.1 5 .6 5 2.6zm-17-2.2c0 .3-.4.8-1 1.1-.5.3-1 .1-1-.4 0-.6.5-1.1 1-1.1.6 0 1 .2 1 .4zm0 5.2c0 .8-.4 1.2-1 .9-.5-.3-1-1-1-1.6 0-.5.5-.9 1-.9.6 0 1 .7 1 1.6z"/><path d="M48.9 44.4c1.4 1.4 2.6 2.4 2.9 2.2.7-.8-.8-2.5-3.1-3.7-2.1-1.1-2.1-1 .2 1.5zM52.6 49.3c.3 1 .9 1.5 1.2 1.2.3-.3 0-1.1-.7-1.8-1-.9-1.1-.8-.5.6zM48.5 146c-.3.5-.2 1 .4 1 .5 0 1.3-.5 1.6-1 .3-.6.2-1-.4-1-.5 0-1.3.4-1.6 1zM40 153c-2.5 2.8-4.1 5-3.5 5 .5 0 2.2.7 3.8 1.4 2.7 1.5 2.7 1.5 2.7-1.7v-3.2l1.9 2.4c1.3 1.8 2.3 2.2 4 1.6 1.5-.4 2-1.2 1.7-2.2-.4-1.1-.2-1.3.9-.9 1 .4 1.5-.1 1.5-1.4 0-2.8-5.6-3-9.7-.4-3.4 2.1-2.8 0 .8-3 1.7-1.4 2.5-2.6 1.7-2.6-.7 0-3.3 2.3-5.8 5zM73.5 167.2c.4.9.1 1.9-.4 2.3-1.9 1.1-.3 2.3 2.3 1.8 1.4-.3 2.7-1.2 3-2 .4-.9.1-1.3-.6-1-.7.2-2.1-.3-3.1-1.1-1.6-1.4-1.7-1.4-1.2 0zM40.4 181.1c-4.4 1.3-7.2 4.5-5.6 6.7.6.9 2.3 4.1 3.8 6.9 2 4.1 3 5.3 4.7 5.2 2-.1 2-.2.3-.6-1.5-.4-.8-1.1 3-2.9 5.8-2.8 9.4-3.2 7.4-.9-1.1 1.3-1 1.4.4.9 2.9-1.1 3.8-5 2-9.4-2.6-6.4-7.7-8.3-16-5.9zm11 .8c.3.5-1.2 1.1-3.4 1.5-5.3.8-9.4 2.7-7.9 3.7.7.4 0 .6-1.4.6-2.9-.2-3.1-.5-1.9-2.4 2.1-3.3 13.1-5.9 14.6-3.4zM47.8 201.7c.7.3 1.6.2 1.9-.1.4-.3-.2-.6-1.3-.5-1.1 0-1.4.3-.6.6zM270.3 174.4c3 2.8 3.7 3.1 3.7 1.6 0-.5-1.5-1.7-3.2-2.6l-3.3-1.7 2.8 2.7zM259 176.3c0 1.4 3.6 5.7 4.7 5.7.4 0 1.5-.7 2.5-1.7 1.7-1.5 1.8-1.5 1.8.1 0 .9.5 1.4 1 1.1 1.8-1.1 1.1-2.5-2.2-4.5-3.8-2.3-7.8-2.6-7.8-.7zM275.1 194.3c-.1 1-1.1 2.2-2.3 2.7l-2.3.9h2.3c2.4.1 3.8-1.9 2.9-4.1-.3-.8-.6-.6-.6.5zM261.3 199c1.5 1.2 2.7 2.8 2.7 3.6 0 1.6 1.8 1.8 3.9.5 1.6-1 .6-3.1-1.5-3.1-.8 0-2.9-.7-4.7-1.5l-3.2-1.6 2.8 2.1zM240.1 218.7c-.1 1.4 3.6 10.3 4.3 10.3.3 0-.3-1.9-1.3-4.3-1-2.3-2-4.9-2.4-5.7-.3-.8-.6-1-.6-.3zM249 237c.6 1.1 1.3 2 1.6 2 .2 0 0-.9-.6-2s-1.3-2-1.6-2c-.2 0 0 .9.6 2zM260.6 241.2c.3.7 2.9 2.8 5.7 4.6l5.2 3.3-4-3.6c-4.9-4.4-7.7-6.1-6.9-4.3zM198.6 246.3c.3 1 .9 1.5 1.2 1.2.3-.3 0-1.1-.7-1.8-1-.9-1.1-.8-.5.6zM126.6 36.8c-.3.5.8 1.9 2.5 3.1 3 2.2 3 2.2 1.9.2-.6-1.2-1.8-2.1-2.6-2.1s-1.2-.5-.9-1c.3-.6.4-1 .1-1-.3 0-.7.4-1 .8zM11.3 65.3c.4 1 .7 2.5.7 3.3 0 .8.7 1.4 1.5 1.4 2 0 1.9-.7-.7-3.8-1.3-1.7-1.9-2-1.5-.9zM204 66.9c0 1.1 3 1.9 4.8 1.4 2.2-.8 1.3-1.9-1.8-2.1-1.6-.1-3 .2-3 .7zM184 67.5c0 .6 5.6 3.5 6.7 3.5.4 0-.7-.9-2.5-2-3.3-2-4.2-2.4-4.2-1.5zM163 71c0 2.2 17.1 19.4 21.7 21.8 3.4 1.8 2.2 0-3-4.7-2.2-2-4.5-4.1-5.1-4.7-.6-.5-1.9-1.3-2.9-1.7-1.1-.4-1.5-1.2-1.1-1.8.4-.7.3-.9-.3-.6-.6.4-2.8-1.6-4.9-4.3-4-5.3-4.4-5.6-4.4-4zM254.2 73.2c-3.4 1.2-6 2.3-5.8 2.5.4.4 6.2-1.2 16.1-4.2.6-.2-.1-.3-1.5-.3s-5.3.9-8.8 2zM198.3 74.8c1.5 1 3.4 2.7 4.2 3.8 1.3 1.7 1.4 1.8 1.5.1 0-.9-1.5-2.6-3.2-3.7-4.1-2.5-6.3-2.6-2.5-.2zM12 80c0 .6.7 1.3 1.5 1.7.9.3 2.3 1.9 3.1 3.5.8 1.6 1.9 2.6 2.4 2.3.6-.3.8 0 .5.7-.2.7 1.2 3.1 3.1 5.3 2.8 3.1 3.1 3.3 1.5.9-1.1-1.7-1.8-3.4-1.4-3.8.3-.3.1-.6-.6-.6s-.9-.5-.5-1.1c.3-.6 1.7-.8 3.1-.4 1.5.3 2.2.2 1.9-.4-.3-.5-2.5-1.2-4.7-1.6-2.6-.5-4.3-1.3-4.6-2.4-.5-1.9-5.3-5.7-5.3-4.1zM198 80.5c.7.8 1.7 1.2 2.2.9.6-.4.5-1-.3-1.5-2.2-1.4-3.3-1-1.9.6zM70.2 86c0 1.4.2 1.9.5 1.2.2-.6.2-1.8 0-2.5-.3-.6-.5-.1-.5 1.3zM155 84.5c0 .5.5 1.7 1 2.5s1 1 1 .5c0-.6-.5-1.7-1-2.5s-1-1.1-1-.5zM33.4 94.4c-1 1.4-2.3 2.2-2.8 1.9-.6-.4-.8-.3-.4.2.4.4.2 1.5-.5 2.3-1 1.3-.9 1.4.9.2 1.2-.7 2.9-2.6 3.8-4.2 2.1-3.4 1.5-3.7-1-.4zM177.5 97c1 1.1 2 2 2.2 2 .2 0-.2-.9-.9-2s-1.7-2-2.2-2c-.5 0-.1.9.9 2zM155.1 97.6c0 1.1.3 1.4.6.6.3-.7.2-1.6-.1-1.9-.3-.4-.6.2-.5 1.3zM159.1 100.6c0 1.1.3 1.4.6.6.3-.7.2-1.6-.1-1.9-.3-.4-.6.2-.5 1.3zM25.3 102.8c-.2 1-2 2.7-3.9 3.7-5.2 2.8-3.5 2.8 2.1 0 5.1-2.6 7.3-4.3 4.1-3.1-1.4.5-1.7.2-1.2-.9.3-.8.3-1.5 0-1.5s-.8.8-1.1 1.8zM156.3 105c0 2.5.2 3.5.4 2.2.2-1.2.2-3.2 0-4.5-.2-1.2-.4-.2-.4 2.3zM157.3 114.5c0 2.2.2 3 .4 1.7.2-1.2.2-3 0-4-.3-.9-.5.1-.4 2.3zM190 111.4c0 .2.8 1 1.8 1.7 1.5 1.3 1.6 1.2.3-.4s-2.1-2.1-2.1-1.3zM267.2 114c0 1.4.2 1.9.5 1.2.2-.6.2-1.8 0-2.5-.3-.6-.5-.1-.5 1.3zM163 115.5c0 .5.5 1.7 1 2.5s1 1 1 .5c0-.6-.5-1.7-1-2.5s-1-1.1-1-.5zM212.4 117.6c.3.9.6 2.7.6 4 0 1.3.3 2.4.8 2.4.4 0 .6-1.8.4-4-.2-2.2-.9-4-1.4-4-.6 0-.7.7-.4 1.6zM238.8 120.2c.6.6 1.8.8 2.8.6 1.4-.3 1.2-.5-.9-1-1.9-.3-2.5-.2-1.9.4zM165 121.1c0 .9.7 3 1.5 4.5 1.9 3.7 1.9 1.7 0-2.7-.8-1.9-1.4-2.7-1.5-1.8zM.5 164c.4.6 1.1.8 1.6.5 1.4-.9 1.1-1.5-.7-1.5-.8 0-1.2.5-.9 1zM0 173c0 1.1.2 2 .4 2s.6-.9.9-2c.3-1.1.1-2-.4-2s-.9.9-.9 2zM11 203.5c0 .8.4 1.5.9 1.5s1.1-.7 1.5-1.5c.3-.9 0-1.5-.9-1.5-.8 0-1.5.7-1.5 1.5zM295 205.4c0 .2.7.9 1.5 1.6.9.7 1.5.8 1.5.2 0-.5-.7-1.2-1.5-1.6-.8-.3-1.5-.4-1.5-.2zM302 220c-1.3.8-1.2 1 .3 1 .9 0 1.7-.5 1.7-1 0-1.2-.1-1.2-2 0z"/></svg>